<svg width="54" height="67" viewBox="0 0 54 67" fill="none" xmlns="http://www.w3.org/2000/svg">
<g clip-path="url(#clip0_101_156)">
<path d="M47.7326 41.1984C52.7714 46.2088 52.7714 54.3323 47.7326 59.3425C42.6938 64.3528 34.5243 64.3528 29.4856 59.3425L22.4602 52.3569L40.7072 34.2128L47.7326 41.1984Z" fill="white"/>
<path d="M12.9026 24.7092H38.708V54.1702C38.708 61.2561 32.9312 67 25.8053 67C18.6794 67 12.9026 61.2561 12.9026 54.1702V24.7092Z" fill="#59FF00"/>
<path d="M32.9734 41.8156V16.156H41.0973C48.2234 16.156 54 21.9001 54 28.9858C54 36.0715 48.2234 41.8156 41.0973 41.8156H32.9734Z" fill="#6A5AFC"/>
<path d="M25.8053 42.2908H0V12.8298C0 5.74409 5.77671 0 12.9027 0C20.0286 0 25.8053 5.74409 25.8053 12.8298V42.2908Z" fill="#FF373E"/>
</g>
<defs>
<clipPath id="clip0_101_156">
<rect width="54" height="67" fill="white"/>
</clipPath>
</defs>
</svg>
